<mxfile host="app.diagrams.net" modified="2024-02-24T13:14:36.520Z" agent="Mozilla/5.0 (Windows NT 10.0; Win64; x64) AppleWebKit/537.36 (KHTML, like Gecko) Chrome/121.0.0.0 Safari/537.36" version="22.1.18" etag="e726EpLOT02jDpelp_ei" type="github">
  <diagram name="第 1 页" id="Qcrea3f6zmg_ADSJD1rE">
    <mxGraphModel>
      <root>
        <mxCell id="0" />
        <mxCell id="1" parent="0" />
      </root>
    </mxGraphModel>
  </diagram>
</mxfile>
